<?xml version="1.0" encoding="utf-8"?>
<!-- Generator: Adobe Illustrator 16.0.0, SVG Export Plug-In . SVG Version: 6.00 Build 0)  -->
<!DOCTYPE svg PUBLIC "-//W3C//DTD SVG 1.1//EN" "http://www.w3.org/Graphics/SVG/1.1/DTD/svg11.dtd">
<svg version="1.1" id="Layer_1" xmlns="http://www.w3.org/2000/svg" xmlns:xlink="http://www.w3.org/1999/xlink" x="0px" y="0px"
	 width="798px" height="301px" viewBox="0 0 798 301" enable-background="new 0 0 798 301" xml:space="preserve">
<polyline fill="none" stroke="#007EFF" stroke-width="9" stroke-miterlimit="10" points="279.318,81.557 246.113,81.557 
	208.437,43.879 90.656,43.879 "/>
<polyline fill="none" stroke="#007EFF" stroke-width="9" stroke-miterlimit="10" points="246.114,81.557 199.732,81.557 
	168.725,112.564 63.387,112.564 24.189,112.564 "/>
<g>
	<defs>
		<rect id="SVGID_1_" x="-131.841" y="-130" width="1000" height="1000"/>
	</defs>
	<clipPath id="SVGID_2_">
		<use xlink:href="#SVGID_1_"  overflow="visible"/>
	</clipPath>
	<path clip-path="url(#SVGID_2_)" fill="#AEDAFF" d="M100.456,43.879c0,5.413-4.388,9.8-9.8,9.8c-5.412,0-9.8-4.387-9.8-9.8
		c0-5.412,4.388-9.8,9.8-9.8C96.068,34.08,100.456,38.467,100.456,43.879"/>
	
		<circle clip-path="url(#SVGID_2_)" fill="none" stroke="#007EFF" stroke-width="9" stroke-miterlimit="10" cx="90.656" cy="43.879" r="9.8"/>
	<path clip-path="url(#SVGID_2_)" fill="#AEDAFF" d="M33.988,112.564c0,5.413-4.388,9.8-9.8,9.8c-5.412,0-9.8-4.387-9.8-9.8
		c0-5.412,4.388-9.799,9.8-9.799C29.6,102.765,33.988,107.152,33.988,112.564"/>
	
		<circle clip-path="url(#SVGID_2_)" fill="none" stroke="#007EFF" stroke-width="9" stroke-miterlimit="10" cx="24.188" cy="112.564" r="9.8"/>
	<polyline clip-path="url(#SVGID_2_)" fill="none" stroke="#007EFF" stroke-width="9" stroke-miterlimit="10" points="
		515.697,81.557 548.902,81.557 586.579,43.879 704.359,43.879 	"/>
	<polyline clip-path="url(#SVGID_2_)" fill="none" stroke="#007EFF" stroke-width="9" stroke-miterlimit="10" points="
		548.902,81.557 595.284,81.557 626.291,112.564 731.628,112.564 770.827,112.564 	"/>
	<path clip-path="url(#SVGID_2_)" fill="#AEDAFF" d="M714.159,43.879c0,5.413-4.388,9.8-9.8,9.8s-9.8-4.387-9.8-9.8
		c0-5.412,4.388-9.8,9.8-9.8S714.159,38.467,714.159,43.879"/>
	
		<circle clip-path="url(#SVGID_2_)" fill="none" stroke="#007EFF" stroke-width="9" stroke-miterlimit="10" cx="704.359" cy="43.879" r="9.8"/>
	<path clip-path="url(#SVGID_2_)" fill="#AEDAFF" d="M780.627,112.564c0,5.413-4.388,9.8-9.8,9.8s-9.8-4.387-9.8-9.8
		c0-5.412,4.388-9.799,9.8-9.799S780.627,107.152,780.627,112.564"/>
	
		<circle clip-path="url(#SVGID_2_)" fill="none" stroke="#007EFF" stroke-width="9" stroke-miterlimit="10" cx="770.827" cy="112.564" r="9.8"/>
	<polyline clip-path="url(#SVGID_2_)" fill="none" stroke="#007EFF" stroke-width="9" stroke-miterlimit="10" points="
		529.525,230.107 582.326,177.307 697.132,177.307 	"/>
	<polyline clip-path="url(#SVGID_2_)" fill="none" stroke="#007EFF" stroke-width="9" stroke-miterlimit="10" points="
		158.577,230.107 251.946,230.107 300.039,278.2 481.432,278.2 529.525,230.107 622.894,230.107 	"/>
	<polyline clip-path="url(#SVGID_2_)" fill="none" stroke="#007EFF" stroke-width="9" stroke-miterlimit="10" points="
		251.945,230.107 199.144,177.307 84.338,177.307 	"/>
	<path clip-path="url(#SVGID_2_)" fill="#AEDAFF" d="M73.209,177.306c0,6.146,4.983,11.129,11.129,11.129
		s11.129-4.983,11.129-11.129s-4.983-11.129-11.129-11.129S73.209,171.16,73.209,177.306"/>
	
		<circle clip-path="url(#SVGID_2_)" fill="none" stroke="#007EFF" stroke-width="9" stroke-miterlimit="10" cx="84.338" cy="177.306" r="11.129"/>
	<path clip-path="url(#SVGID_2_)" fill="#AEDAFF" d="M708.261,177.306c0,6.146-4.982,11.129-11.129,11.129
		c-6.146,0-11.129-4.983-11.129-11.129s4.983-11.129,11.129-11.129C703.278,166.177,708.261,171.16,708.261,177.306"/>
	
		<circle clip-path="url(#SVGID_2_)" fill="none" stroke="#007EFF" stroke-width="9" stroke-miterlimit="10" cx="697.132" cy="177.306" r="11.129"/>
	<path clip-path="url(#SVGID_2_)" fill="#AEDAFF" d="M634.022,230.107c0,6.146-4.982,11.128-11.129,11.128
		s-11.129-4.982-11.129-11.128s4.982-11.129,11.129-11.129S634.022,223.961,634.022,230.107"/>
	
		<circle clip-path="url(#SVGID_2_)" fill="none" stroke="#007EFF" stroke-width="9" stroke-miterlimit="10" cx="622.894" cy="230.107" r="11.129"/>
	<path clip-path="url(#SVGID_2_)" fill="#AEDAFF" d="M147.448,230.107c0,6.146,4.982,11.128,11.129,11.128
		c6.146,0,11.129-4.982,11.129-11.128s-4.983-11.129-11.129-11.129C152.43,218.979,147.448,223.961,147.448,230.107"/>
	
		<circle clip-path="url(#SVGID_2_)" fill="none" stroke="#007EFF" stroke-width="9" stroke-miterlimit="10" cx="158.577" cy="230.107" r="11.129"/>
</g>
<g>
	<path fill="#FFFFFF" d="M272.659,240.478v-42.085h8.998v19.059l14.029-19.059h10.406l-15.063,19.174l15.609,22.911H295.8
		l-14.144-22.02v22.02H272.659z"/>
	<path fill="#FFFFFF" d="M304.803,240.478l16.012-42.085h10.291l16.242,42.085h-10.233l-3.421-8.94h-16.299l-2.932,8.94H304.803z
		 M331.595,224.466l-4.714-13.597c-0.134-0.403-0.307-1.092-0.518-2.07s-0.431-2.175-0.661-3.593
		c-0.25,1.361-0.489,2.583-0.719,3.665c-0.23,1.083-0.402,1.807-0.518,2.17l-4.542,13.425H331.595z"/>
	<path fill="#FFFFFF" d="M382.218,240.478H371.84l-11.067-19.663v19.663h-8.998v-42.085h12.878c5.117,0,8.95,0.992,11.499,2.975
		s3.823,4.969,3.823,8.955c0,2.894-0.872,5.366-2.616,7.417c-1.744,2.051-3.996,3.249-6.755,3.594L382.218,240.478z
		 M360.772,216.331h1.352c3.641,0,6.046-0.398,7.215-1.193c1.169-0.795,1.754-2.18,1.754-4.154c0-2.07-0.628-3.54-1.883-4.413
		c-1.255-0.872-3.618-1.308-7.086-1.308h-1.352V216.331z"/>
	<path fill="#FFFFFF" d="M387.622,240.478v-42.085h8.998v42.085H387.622z"/>
	<path fill="#FFFFFF" d="M406.222,240.478v-42.085h8.997v19.059l14.028-19.059h10.406l-15.063,19.174l15.609,22.911h-10.838
		l-14.144-22.02v22.02H406.222z"/>
	<path fill="#FFFFFF" d="M438.365,240.478l16.012-42.085h10.291l16.242,42.085h-10.234l-3.421-8.94h-16.299l-2.933,8.94H438.365z
		 M465.156,224.466l-4.714-13.597c-0.135-0.403-0.307-1.092-0.518-2.07s-0.432-2.175-0.661-3.593
		c-0.249,1.361-0.488,2.583-0.719,3.665c-0.229,1.083-0.402,1.807-0.518,2.17l-4.542,13.425H465.156z"/>
	<path fill="#FFFFFF" d="M482.635,235.131l5.002-5.663c0.632,1.552,1.647,2.774,3.047,3.665c1.398,0.891,2.97,1.337,4.714,1.337
		c2.108,0,3.775-0.499,5.002-1.495c1.227-0.996,1.84-2.338,1.84-4.024c0-1.993-2.041-3.977-6.123-5.951
		c-1.322-0.632-2.367-1.15-3.133-1.552c-3.68-1.916-6.229-3.79-7.646-5.62c-1.419-1.83-2.128-4.01-2.128-6.54
		c0-3.469,1.375-6.319,4.125-8.552c2.75-2.232,6.319-3.349,10.709-3.349c2.548,0,4.747,0.446,6.597,1.337s3.483,2.285,4.901,4.183
		l-5.318,5.088c-0.632-1.226-1.471-2.142-2.515-2.745c-1.045-0.604-2.305-0.905-3.78-0.905c-1.782,0-3.22,0.445-4.313,1.336
		c-1.092,0.891-1.639,2.046-1.639,3.464c0,2.224,2.166,4.255,6.497,6.094c0.862,0.364,1.523,0.652,1.983,0.863
		c3.564,1.629,6.204,3.469,7.92,5.519c1.715,2.051,2.573,4.389,2.573,7.014c0,3.948-1.347,7.096-4.039,9.443
		c-2.693,2.348-6.311,3.521-10.853,3.521c-3.219,0-5.979-0.556-8.278-1.667C485.48,238.82,483.765,237.22,482.635,235.131z"/>
</g>
<g>
	<path fill="#FFFFFF" d="M241.341,169.329l50.897-133.778h32.713l51.629,133.778H344.05l-10.874-28.418h-51.812l-9.32,28.418
		H241.341z M326.506,118.431L311.52,75.209c-0.427-1.279-0.975-3.473-1.645-6.579c-0.671-3.107-1.371-6.914-2.102-11.422
		c-0.792,4.326-1.553,8.209-2.284,11.65c-0.731,3.442-1.279,5.743-1.645,6.899l-14.438,42.673H326.506z"/>
	<path fill="#FFFFFF" d="M382.063,152.333l15.899-18.001c2.011,4.935,5.239,8.818,9.687,11.651
		c4.446,2.833,9.442,4.249,14.986,4.249c6.7,0,12-1.583,15.899-4.751c3.898-3.167,5.849-7.432,5.849-12.793
		c0-6.335-6.488-12.64-19.464-18.916c-4.203-2.01-7.524-3.655-9.96-4.935c-11.696-6.091-19.8-12.046-24.307-17.864
		c-4.509-5.817-6.763-12.747-6.763-20.789c0-11.025,4.371-20.087,13.113-27.185c8.741-7.096,20.088-10.646,34.038-10.646
		c8.102,0,15.092,1.417,20.972,4.249c5.878,2.833,11.071,7.265,15.58,13.295l-16.905,16.174c-2.01-3.898-4.676-6.808-7.995-8.727
		c-3.321-1.919-7.326-2.878-12.017-2.878c-5.665,0-10.234,1.417-13.707,4.25c-3.472,2.833-5.208,6.503-5.208,11.011
		c0,7.068,6.883,13.524,20.651,19.373c2.741,1.158,4.843,2.071,6.305,2.741c11.331,5.179,19.723,11.027,25.175,17.544
		c5.451,6.52,8.179,13.951,8.179,22.296c0,12.55-4.28,22.556-12.839,30.018c-8.56,7.463-20.058,11.194-34.495,11.194
		c-10.234,0-19.007-1.768-26.317-5.3C391.11,164.061,385.657,158.973,382.063,152.333z"/>
	<path fill="#FFFFFF" d="M496.013,169.329V35.551h28.602v133.778H496.013z"/>
</g>
<g>
	<path fill="#FFFFFF" d="M275.115,237.214v-41.209h8.811v18.663l13.737-18.663h10.189l-14.75,18.775l15.284,22.435h-10.612
		l-13.849-21.562v21.562H275.115z"/>
	<path fill="#FFFFFF" d="M306.591,237.214l15.679-41.209h10.077l15.904,41.209h-10.021l-3.35-8.754h-15.96l-2.871,8.754H306.591z
		 M332.825,221.535l-4.617-13.314c-0.131-0.394-0.3-1.069-0.506-2.026c-0.207-0.957-0.422-2.13-0.647-3.519
		c-0.244,1.333-0.479,2.529-0.704,3.589c-0.226,1.061-0.395,1.769-0.507,2.125l-4.448,13.146H332.825z"/>
	<path fill="#FFFFFF" d="M382.395,237.214h-10.162l-10.837-19.253v19.253h-8.811v-41.209h12.611c5.01,0,8.763,0.971,11.259,2.914
		c2.495,1.942,3.744,4.865,3.744,8.768c0,2.834-0.854,5.254-2.562,7.262c-1.708,2.008-3.913,3.181-6.615,3.519L382.395,237.214z
		 M361.396,213.569h1.323c3.565,0,5.921-0.39,7.065-1.168c1.145-0.778,1.717-2.134,1.717-4.067c0-2.027-0.615-3.467-1.844-4.321
		c-1.229-0.854-3.542-1.281-6.938-1.281h-1.323V213.569z"/>
	<path fill="#FFFFFF" d="M387.687,237.214v-41.209h8.811v41.209H387.687z"/>
	<path fill="#FFFFFF" d="M405.898,237.214v-41.209h8.811v18.663l13.736-18.663h10.19l-14.75,18.775l15.284,22.435h-10.611
		l-13.85-21.562v21.562H405.898z"/>
	<path fill="#FFFFFF" d="M437.374,237.214l15.679-41.209h10.077l15.903,41.209h-10.021l-3.35-8.754h-15.96l-2.871,8.754H437.374z
		 M463.608,221.535l-4.616-13.314c-0.132-0.394-0.301-1.069-0.507-2.026c-0.207-0.957-0.423-2.13-0.647-3.519
		c-0.244,1.333-0.479,2.529-0.704,3.589c-0.225,1.061-0.394,1.769-0.507,2.125l-4.447,13.146H463.608z"/>
	<path fill="#FFFFFF" d="M480.723,231.978l4.897-5.545c0.619,1.52,1.614,2.716,2.983,3.589c1.37,0.873,2.909,1.309,4.617,1.309
		c2.063,0,3.696-0.488,4.897-1.464c1.201-0.976,1.802-2.29,1.802-3.941c0-1.952-1.999-3.894-5.996-5.827
		c-1.295-0.619-2.317-1.126-3.068-1.52c-3.603-1.876-6.099-3.711-7.487-5.503s-2.083-3.927-2.083-6.404
		c0-3.396,1.347-6.188,4.039-8.375c2.693-2.186,6.188-3.279,10.485-3.279c2.496,0,4.649,0.437,6.461,1.309
		c1.811,0.873,3.41,2.238,4.799,4.096l-5.207,4.982c-0.62-1.201-1.44-2.097-2.464-2.688c-1.022-0.591-2.256-0.887-3.701-0.887
		c-1.745,0-3.152,0.437-4.223,1.309c-1.069,0.873-1.604,2.003-1.604,3.392c0,2.177,2.12,4.166,6.361,5.968
		c0.844,0.356,1.491,0.638,1.942,0.844c3.49,1.595,6.075,3.397,7.755,5.405c1.679,2.008,2.519,4.297,2.519,6.868
		c0,3.866-1.318,6.948-3.954,9.247c-2.637,2.299-6.179,3.448-10.626,3.448c-3.153,0-5.855-0.544-8.107-1.632
		C483.509,235.591,481.829,234.024,480.723,231.978z"/>
</g>
<g>
	<path fill="#FFFFFF" d="M244.45,168.546l49.838-130.995h32.033l50.554,130.995h-31.854l-10.648-27.828h-50.733l-9.127,27.828
		H244.45z M327.843,118.707l-14.674-42.323c-0.418-1.252-0.955-3.4-1.61-6.442c-0.657-3.042-1.342-6.77-2.058-11.185
		c-0.776,4.236-1.521,8.039-2.237,11.408c-0.716,3.371-1.253,5.623-1.611,6.756l-14.137,41.786H327.843z"/>
	<path fill="#FFFFFF" d="M382.245,151.903l15.568-17.627c1.969,4.832,5.13,8.635,9.485,11.409c4.354,2.774,9.245,4.161,14.674,4.161
		c6.562,0,11.751-1.55,15.569-4.653c3.816-3.101,5.727-7.277,5.727-12.527c0-6.203-6.354-12.377-19.059-18.522
		c-4.116-1.968-7.368-3.579-9.753-4.832c-11.453-5.964-19.388-11.796-23.802-17.493c-4.415-5.696-6.621-12.482-6.621-20.356
		c0-10.796,4.279-19.669,12.84-26.619c8.56-6.949,19.67-10.424,33.331-10.424c7.933,0,14.777,1.387,20.534,4.161
		c5.756,2.774,10.841,7.114,15.256,13.019l-16.553,15.837c-1.969-3.817-4.579-6.666-7.829-8.545
		c-3.252-1.879-7.174-2.818-11.767-2.818c-5.548,0-10.021,1.387-13.422,4.161c-3.399,2.773-5.1,6.368-5.1,10.782
		c0,6.92,6.74,13.243,20.222,18.969c2.685,1.134,4.742,2.029,6.174,2.684c11.096,5.071,19.312,10.798,24.651,17.18
		c5.338,6.384,8.008,13.661,8.008,21.833c0,12.289-4.191,22.087-12.571,29.394c-8.382,7.308-19.641,10.961-33.778,10.961
		c-10.021,0-18.61-1.731-25.769-5.19C391.104,163.387,385.764,158.406,382.245,151.903z"/>
	<path fill="#FFFFFF" d="M493.823,168.546V37.551h28.007v130.995H493.823z"/>
</g>
</svg>
