<svg id="Layer_1" data-name="Layer 1" xmlns="http://www.w3.org/2000/svg" viewBox="0 0 808.38 808.38"><defs><style>.cls-1{fill:#0059ab;}.cls-2,.cls-4{fill:#d85aa3;}.cls-3{fill:#fff;}.cls-4,.cls-5{fill-rule:evenodd;}.cls-5,.cls-6{fill:#085eaa;}</style></defs><title>baskin-robbins-seeklogo</title><circle class="cls-1" cx="404.19" cy="404.19" r="404.19"/><circle class="cls-2" cx="1980" cy="1044" r="384.88" transform="translate(-1734.1 1066.04) rotate(-45)"/><circle class="cls-3" cx="1980" cy="1044" r="346.72" transform="translate(-1734.1 1066.04) rotate(-45)"/><path class="cls-4" d="M1842.63,787.18c48.54-1.7,95.09,6.94,120.1,38.72a84.08,84.08,0,0,1,16.75,40.77c4.59,37.65-21.72,60-50,73.09,14.61,4.44,29.24,10.89,40.42,21.13,9,8.23,17.73,21.09,18,40.62.15,11.34-4.21,25.4-8.81,34.57-19.07,38-71.63,52.09-127.19,50.85l.23-23.6c19.94,1.14,40.34-3.23,52.9-13.88,10-8.51,17.37-22.19,17.3-36.23a34.72,34.72,0,0,0-6.2-20.34c-10.87-15.09-34.36-21.25-55.46-22.4l-1.87-35.75c32.51-1.07,58.54-21.23,55.31-50.17-2.1-18.72-19.87-26.16-36.5-29.67a131.28,131.28,0,0,0-32-2.93Z" transform="translate(-1575.81 -639.81)"/><path class="cls-5" d="M1831.67,799.06c3.58,88.85,5.18,190.44,8.5,283.71-10.9.74-21.32.86-32.08,1.43-17.34-91.34-35.73-179.9-53.07-272.7Z" transform="translate(-1575.81 -639.81)"/><path class="cls-4" d="M2082.16,790c-11.72,99.21-20.7,198.76-31.58,299.56-14.65-1.76-29.43-2.32-42.25-4.4l6.64-300Z" transform="translate(-1575.81 -639.81)"/><path class="cls-5" d="M2070,996.23c1.79-11.82,3-24.12,4.6-36.06,19.41-5,38.38-12.64,48.25-25.61,7.19-9.44,10.25-27.72,2.74-40.78-8.09-14.07-25.78-20.61-42.38-24.3l6.46-69.25c32.28,1.53,62.95,9.44,83.77,26.94,21.73,18.26,34.54,53,25.24,88.11-8.94,33.82-35.95,56.51-71.53,71l34.53,92.48-35.83,6.57Z" transform="translate(-1575.81 -639.81)"/><path class="cls-5" d="M2059.92,1134.83c-4.46-3.72-8.9-7.45-13.1-11.51l-33.19,32.21c1.19-18.09,3-35.71,3.64-54.22l-19.18-.87c-1.27,33.63-4,66.15-5.61,99.53l35.88-34.65,19.07,26.65,15.87-10.81-21.28-29Z" transform="translate(-1575.81 -639.81)"/><path class="cls-5" d="M1987.15,1134.84c-6.55.92-15.22,5-15.15,11.87,0,3.72,5,12.83,6.91,17,4.4,9.47,10.69,18.28,5,28.2-4.55,7.9-14.78,13.27-27.32,15.83-2.21-3.57-3.47-8.36-5.66-12,6.51-1.32,15.63-4.81,15.72-11.94.05-4.32-4.14-9.78-6.69-15.27-2.29-4.93-5.5-10.84-6.68-15.27-4.88-18.25,11.54-25.57,27.59-30.88l1.14-.15C1983.47,1126.39,1987,1131.19,1987.15,1134.84Z" transform="translate(-1575.81 -639.81)"/><path class="cls-5" d="M2168.91,1218c1.63,4.28,3.72,8,5.15,12.52-6,1.32-14.92,4-15.15,11.24-.12,4.13,3.79,10.58,6.24,16.39,4.14,9.82,10.94,22.35,4.34,32.16-4.46,6.63-13.66,11.31-25.78,13.25a101.63,101.63,0,0,1-5.14-12.52c6.23-1.3,15.18-4.36,15.07-11.8-.06-4.17-5-12.73-7-17.45-3.14-7.56-8.88-15.55-6.74-24.36C2142.45,1227.13,2154.33,1220.41,2168.91,1218Z" transform="translate(-1575.81 -639.81)"/><path class="cls-6" d="M2194.68,1231.4a14.53,14.53,0,0,1,6.91,2.33,13.35,13.35,0,0,1,4.93,5.63,14.38,14.38,0,0,1-1,14.28,13.62,13.62,0,0,1-5.65,4.9,14.32,14.32,0,0,1-14.2-1,13.45,13.45,0,0,1-4.9-5.64,14.34,14.34,0,0,1,1-14.27,13.28,13.28,0,0,1,5.67-4.89A14.62,14.62,0,0,1,2194.68,1231.4Zm-.18,2.85a11.63,11.63,0,0,0-5.73,1.07,10.64,10.64,0,0,0-4.55,3.92,11.58,11.58,0,0,0-1.95,5.65,11.45,11.45,0,0,0,1.11,5.8,10.94,10.94,0,0,0,3.93,4.54,11.44,11.44,0,0,0,11.4.79,10.84,10.84,0,0,0,4.52-3.94,11.44,11.44,0,0,0,.78-11.46,10.77,10.77,0,0,0-4-4.51A11.69,11.69,0,0,0,2194.5,1234.25Zm-7.79,18.59,1.05-15.07,3.07.22c2.88.2,4.49.33,4.84.38a5.93,5.93,0,0,1,2.33.77,3.71,3.71,0,0,1,1.31,1.54,4.32,4.32,0,0,1,.42,2.2,4,4,0,0,1-1.27,2.72,4.85,4.85,0,0,1-3.1,1.22,3.83,3.83,0,0,1,1,.64,6.86,6.86,0,0,1,.95,1.23c.1.16.43.79,1,1.91l1.56,3.17-3.82-.27L2195,1251a9.9,9.9,0,0,0-1.89-3.24,3.38,3.38,0,0,0-2.07-.79l-.8-.06-.44,6.18Zm3.67-8.35,1.25.09a15.89,15.89,0,0,0,3.3,0,2,2,0,0,0,1.07-.65,1.92,1.92,0,0,0,.45-1.13,1.83,1.83,0,0,0-.29-1.14,1.93,1.93,0,0,0-1-.77,13.9,13.9,0,0,0-3.27-.45l-1.24-.09Z" transform="translate(-1575.81 -639.81)"/><path class="cls-5" d="M1826.13,1131.2a35.18,35.18,0,0,0-17,7.17l-3.79-28-18.72,2.53,12.42,91.9,18.72-2.54-1-7.37a35,35,0,0,0,18.28,2.41c18.86-2.55,32.19-19.44,29.73-37.65S1845,1128.65,1826.13,1131.2Zm6.53,48.32c-9.08,1.23-17.4-4.64-18.54-13.07s5.32-16.3,14.4-17.53,17.39,4.64,18.53,13.08S1841.73,1178.29,1832.66,1179.52Z" transform="translate(-1575.81 -639.81)"/><path class="cls-5" d="M1935.06,1238.56a31.83,31.83,0,0,0-16.18,3.93l.69-25.55-17-.46-2.26,83.69,17,.46.18-6.71a31.83,31.83,0,0,0,16,4.79c17.17.46,31.5-12.65,32-29.23S1952.24,1239,1935.06,1238.56Zm-1.18,44c-8.27-.23-14.83-6.65-14.62-14.34s7.1-13.75,15.37-13.52,14.82,6.65,14.62,14.33S1942.14,1282.79,1933.88,1282.57Z" transform="translate(-1575.81 -639.81)"/><path class="cls-5" d="M2002.65,1224.43a31.79,31.79,0,0,0-15.94,4.82l-.72-25.55-17,.48,2.35,83.68,17-.48-.18-6.71a31.72,31.72,0,0,0,16.18,3.91c17.17-.48,30.76-14.37,30.29-30.95S2019.81,1224,2002.65,1224.43Zm1.23,44c-8.27.23-15.17-5.83-15.39-13.51s6.34-14.12,14.61-14.36,15.16,5.83,15.38,13.52S2012.15,1268.21,2003.88,1268.44Z" transform="translate(-1575.81 -639.81)"/><path class="cls-5" d="M1869.79,1168.23c-1.54,18.31,12.63,34.51,31.59,36.1a35.17,35.17,0,0,0,18.14-3.33l-.62,7.42,18.82,1.58,5.42-71.94-18.83-1.58,0,7.73a35.19,35.19,0,0,0-17.33-6.3C1888,1136.32,1871.33,1149.92,1869.79,1168.23Zm17.82,1.5c.72-8.48,8.73-14.76,17.85-14s16,8.29,15.27,16.77-8.72,14.76-17.85,14S1886.9,1178.21,1887.61,1169.73Z" transform="translate(-1575.81 -639.81)"/><path class="cls-5" d="M1831.44,1267.73c2.23,16.43,18.17,27.88,35.55,25.53s29.71-17.62,27.49-34-18.17-27.89-35.55-25.54S1829.23,1251.3,1831.44,1267.73Zm15.48-2.09c-1.07-7.9,5.26-15.3,14.11-16.5s16.91,4.26,18,12.16a13.61,13.61,0,0,1-3.15,10.53,17,17,0,0,1-11,6C1856.05,1279,1848,1273.54,1846.92,1265.64Z" transform="translate(-1575.81 -639.81)"/><rect class="cls-6" x="2022" y="1244.66" width="55.39" height="17.34" transform="translate(-903.14 2582.23) rotate(-86.47)"/><path class="cls-5" d="M2063.24,1213.85c-.32,5.25-5.24,9.21-11,8.86s-10.12-4.89-9.8-10.14,5.23-9.21,11-8.85S2063.56,1208.61,2063.24,1213.85Z" transform="translate(-1575.81 -639.81)"/><rect class="cls-6" x="2072.92" y="1136.78" width="19.32" height="61.72" transform="translate(-1612.83 -571.17) rotate(-1.87)"/><polygon class="cls-5" points="576.15 528.94 577.32 496.89 596.62 497.68 593.15 571.24 549.38 526.75 548.21 558.8 528.91 558.01 532.36 484.45 576.15 528.94"/><polygon class="cls-5" points="538.21 615.23 539.32 584.72 556.37 585.11 554.39 655.49 513.15 611.64 513.54 641.36 495.17 640.61 496.75 567.58 538.21 615.23"/><path class="cls-6" d="M1813.33,1225.66l-.67-8.17-21.31,1.93,7.19,78,20.91-1.9-2.9-31.43c-1.8-14.34,4-26.79,19-24.94l-1.63-19.33C1827,1218.49,1816.12,1222.49,1813.33,1225.66Z" transform="translate(-1575.81 -639.81)"/><path class="cls-5" d="M2092.11,1119.78c.28,5.91-4.59,10.93-10.88,11.23s-11.61-4.25-11.89-10.15,4.6-10.93,10.89-11.23S2091.84,1113.88,2092.11,1119.78Z" transform="translate(-1575.81 -639.81)"/></svg>