<?xml version="1.0" encoding="utf-8"?>
<!-- Generator: Adobe Illustrator 16.0.4, SVG Export Plug-In . SVG Version: 6.00 Build 0)  -->
<svg version="1.1" id="Layer_1" xmlns="http://www.w3.org/2000/svg" x="0px" y="0px"
	 width="206.314px" height="59.045px" viewBox="0 0 206.314 59.045" enable-background="new 0 0 206.314 59.045"
	 xml:space="preserve">
<path fill="#FFFFFF" d="M130.021,1.293c0,0.048,0,3.703,0,3.703c0,2.702-2.242,4.586-4.804,4.586h-5.617
	c-0.47,0-0.883-0.15-1.235-0.45c-0.352-0.297-0.529-0.647-0.529-1.046V1.499c0-0.401,0.178-0.75,0.529-1.052
	C118.718,0.148,119.131,0,119.601,0h9.343C128.943,0,130.021,0,130.021,1.293z M206.314,29.996v27.135c0,0,0,1.316-1.57,1.316
	c-0.795,0-4.501,0-4.501,0c-1.456-0.005-2.695-0.561-3.64-1.43c-3.909,1.298-8.688,2.027-13.777,2.027
	c-1.825,0-3.653-0.177-5.477-0.523c-1.824-0.349-3.459-1-4.899-1.951c-1.444-0.946-2.621-2.217-3.53-3.817
	c-0.914-1.595-1.371-3.667-1.371-6.214V46.24c0-2.145,0.398-4.018,1.191-5.614c0.797-1.597,2.062-2.946,3.797-4.044
	c1.736-1.099,3.978-1.92,6.711-2.469c2.738-0.549,6.021-0.823,9.848-0.823h5.561l0.002-0.009c0.001-0.729,0.001-2.008,0.001-2.886
	c0-2.174-0.194-5.202-6.021-5.202c-0.02,0-0.037,0-0.057,0c-0.109-0.005-16.471,0-16.471,0c-0.922,0-1.67-0.748-1.67-1.668V17.89
	c0-0.918,0.748-1.671,1.67-1.671h15.293c0.018,0,0.037,0.009,0.054,0.009c6.015,0.04,10.646,0.714,13.868,2.985
	C204.648,21.561,206.314,25.156,206.314,29.996z M194.656,39.876h-5.592c-2.014,0-3.658,0.141-4.928,0.413
	c-1.277,0.276-2.281,0.674-3.022,1.197c-0.74,0.523-1.243,1.188-1.509,1.984c-0.267,0.797-0.402,1.723-0.402,2.77v0.299
	c0,1.849,0.506,3.084,1.512,3.709c1.005,0.625,2.633,0.936,4.886,0.936c1.597,0,3.182-0.201,4.753-0.6
	c1.564-0.4,3.001-0.897,4.303-1.498V39.876z M15.775,0H1.314C1.314,0,0,0,0,1.571c0,0.795,0,4.497,0,4.497
	c0.002,3.268,2.706,5.525,5.798,5.545v45.26c0,0.399,0.176,0.763,0.525,1.086c0.356,0.327,0.766,0.488,1.24,0.488h8.212
	c0.471,0,0.865-0.161,1.193-0.488c0.322-0.323,0.484-0.687,0.484-1.086V1.499c0-0.401-0.162-0.75-0.484-1.052
	C16.641,0.148,16.246,0,15.775,0z M110.674,16.219h-8.832c-0.943,0-1.559,0.499-1.852,1.496L91.51,46.07
	c-0.195,0.69-0.407,1.184-0.703,1.458c-0.295,0.272-0.619,0.411-0.971,0.411c-0.354,0-0.68-0.139-0.973-0.411
	c-0.294-0.274-0.491-0.768-0.705-1.458l-8.48-28.355c-0.291-0.997-0.879-1.496-1.764-1.496h-8.831c-0.942,0-1.41,0.4-1.41,1.201
	c0,0.25,0.028,0.422,0.085,0.523l11.126,34.061c0.411,1.4,1.016,2.549,1.812,3.447c0.795,0.895,1.678,1.609,2.65,2.135
	c0.969,0.522,2.014,0.896,3.133,1.121c1.118,0.226,2.238,0.338,3.357,0.338c1.117,0,2.236-0.112,3.355-0.338
	c1.116-0.226,2.178-0.599,3.174-1.121c1.006-0.525,1.887-1.24,2.654-2.135c0.764-0.898,1.382-2.047,1.853-3.447L112,17.943
	c0.058-0.102,0.088-0.273,0.088-0.523C112.088,16.619,111.617,16.219,110.674,16.219z M127.987,16.219h-8.12
	c-0.474,0-0.885,0.152-1.235,0.451c-0.356,0.297-0.53,0.648-0.53,1.047v39.156c0,0.399,0.174,0.763,0.53,1.086
	c0.351,0.327,0.762,0.488,1.235,0.488h8.12c0.474,0,0.885-0.161,1.237-0.488c0.357-0.323,0.531-0.687,0.531-1.086V17.717
	c0-0.398-0.174-0.75-0.531-1.047C128.872,16.371,128.461,16.219,127.987,16.219z M64.685,27.009c0.907,2.315,1.36,4.865,1.36,7.653
	v4.18c0,1.246-0.586,1.867-1.761,1.867h-28.71v0.225c0,1.097,0.145,1.99,0.439,3.111c0.291,1.118,0.837,2.14,1.63,3.059
	c0.792,0.922,1.877,1.672,3.257,2.24c1.354,0.564,4.426,0.847,6.537,0.857c0.043,0,0.086-0.001,0.129-0.001
	c9.013,0,11.302-1.404,13.734-1.825c2.434-0.424,2.299,0.978,2.299,0.978s0,3.11,0,4.403c0,3.026-5.701,5.174-18.339,5.174
	c-2.231,0-4.593-0.286-7.085-0.86c-2.494-0.569-4.789-1.567-6.885-2.984c-2.101-1.421-3.832-3.335-5.201-5.751
	c-1.369-2.414-2.055-5.463-2.055-9.146v-5.525c0-2.887,0.469-5.5,1.407-7.842c0.937-2.339,2.298-4.332,4.086-5.975
	c1.788-1.641,3.998-2.909,6.635-3.809c2.636-0.895,5.624-1.342,8.965-1.342c3.398,0,6.401,0.46,9.009,1.383
	c2.606,0.921,4.787,2.228,6.548,3.918C62.443,22.689,63.775,24.693,64.685,27.009z M54.422,33.394c0-2.939-0.857-5.203-2.568-6.797
	c-1.713-1.592-3.953-2.388-6.726-2.388s-5.042,0.782-6.813,2.351c-1.771,1.569-2.653,3.846-2.653,6.834v0.298h18.761V33.394z
	 M162.537,16.219h-22.271c-0.92,0-1.67,0.753-1.67,1.671v38.983c0,0.399,0.174,0.763,0.53,1.086
	c0.354,0.327,0.763,0.488,1.234,0.488h8.126c0.47,0,0.883-0.161,1.235-0.488c0.354-0.323,0.532-0.687,0.532-1.086v-26.96
	c0-3.681,0.669-4.72,4.531-4.72h7.752c0.916,0,1.665-0.751,1.665-1.668V17.89C164.202,16.972,163.453,16.219,162.537,16.219z"/>
</svg>
