<?xml version="1.0" encoding="UTF-8" standalone="no"?>
<svg
   xmlns:dc="http://purl.org/dc/elements/1.1/"
   xmlns:cc="http://creativecommons.org/ns#"
   xmlns:rdf="http://www.w3.org/1999/02/22-rdf-syntax-ns#"
   xmlns:svg="http://www.w3.org/2000/svg"
   xmlns="http://www.w3.org/2000/svg"
   xmlns:sodipodi="http://sodipodi.sourceforge.net/DTD/sodipodi-0.dtd"
   xmlns:inkscape="http://www.inkscape.org/namespaces/inkscape"
   version="1.1"
   id="Layer_1"
   x="0px"
   y="0px"
   viewBox="0 0 540 96"
   style="enable-background:new 0 0 540 96;"
   xml:space="preserve"
   sodipodi:docname="mektory_valge.svg"
   inkscape:version="1.0.1 (3bc2e813f5, 2020-09-07)"><metadata
   id="metadata877"><rdf:RDF><cc:Work
       rdf:about=""><dc:format>image/svg+xml</dc:format><dc:type
         rdf:resource="http://purl.org/dc/dcmitype/StillImage" /><dc:title></dc:title></cc:Work></rdf:RDF></metadata><defs
   id="defs875" /><sodipodi:namedview
   pagecolor="#ffffff"
   bordercolor="#666666"
   borderopacity="1"
   objecttolerance="10"
   gridtolerance="10"
   guidetolerance="10"
   inkscape:pageopacity="0"
   inkscape:pageshadow="2"
   inkscape:window-width="1334"
   inkscape:window-height="785"
   id="namedview873"
   showgrid="false"
   inkscape:zoom="1.1064881"
   inkscape:cx="132.71225"
   inkscape:cy="48"
   inkscape:window-x="0"
   inkscape:window-y="0"
   inkscape:window-maximized="0"
   inkscape:current-layer="Layer_1" />
<style
   type="text/css"
   id="style856">
	.st0{fill:#010101;}
</style>
<polygon
   class="st0"
   points="0,2 32.6,2 46.6,39.7 49.1,39.7 62.2,2 94.3,2 94.3,94 70.9,94 70.9,38.7 68.3,38.7 53.9,77.2   40.3,77.2 25.9,38.7 23.4,38.7 23.4,94 0,94 "
   id="polygon858"
   style="fill:#ffffff" />
<polygon
   class="st0"
   points="102.3,2 159.2,2 159.2,20.3 127.5,20.3 127.5,37.9 157.1,37.9 157.1,56.3 127.5,56.3 127.5,75.7   160,75.7 160,94 102.3,94 "
   id="polygon860"
   style="fill:#ffffff" />
<path
   class="st0"
   d="M361.5,24.7c-1.5-3.2-5.2-5.9-10.9-5.9c-5.7,0-9.4,2.8-10.9,5.9v46.6c1.5,3.2,5.2,5.9,10.9,5.9  c5.7,0,9.4-2.8,10.9-5.9V24.7z M314.5,20.1C318.3,11.6,329,0,350.6,0c21.5,0,32.2,11.6,36.1,20.1v55.8c-3.8,8.5-14.5,20.1-36.1,20.1  c-21.5,0-32.2-11.6-36.1-20.1V20.1z"
   id="path862"
   style="fill:#ffffff" />
<path
   class="st0"
   d="M429.9,44.4c5,0,8.5-1.7,10.1-4.9V25.2c-1.6-3.2-5.3-5-10.1-5h-10.3v24.2H429.9z M394.3,2h41.3  c11.9,0,22.4,5.7,28.3,15.6v28.3c-3.1,5.4-7.6,9.7-13.4,12.5l14.5,22.2V94h-20l-19-32.3h-6.4V94h-25.2V2z"
   id="path864"
   style="fill:#ffffff" />
<polygon
   class="st0"
   points="490.9,56.5 468.4,15.4 468.4,2 491.2,2 503.9,31 506.4,31 519.4,2 540,2 540,15.4 516.1,59 516.1,94   490.9,94 "
   id="polygon866"
   style="fill:#ffffff" />
<polygon
   class="st0"
   points="237,19.9 237,2 236,2 222.5,2 194,30.6 191.9,30.6 191.9,2 166.6,2 166.6,94 191.9,94 191.9,65.5   196,60.9 216.4,94 237.2,94 237.2,80.6 212.4,42.3 "
   id="polygon868"
   style="fill:#ffffff" />
<polygon
   class="st0"
   points="244,2 244,20.3 263.5,20.3 263.5,94 288.7,94 288.7,20.3 308.8,20.3 308.8,2 "
   id="polygon870"
   style="fill:#ffffff" />
</svg>
