<?xml version="1.0" encoding="utf-8"?>
<!-- Generator: Adobe Illustrator 22.0.0, SVG Export Plug-In . SVG Version: 6.00 Build 0)  -->
<svg version="1.1" id="Layer_1" xmlns="http://www.w3.org/2000/svg" xmlns:xlink="http://www.w3.org/1999/xlink" x="0px" y="0px"
	 viewBox="0 0 1920 1080" style="enable-background:new 0 0 1920 1080;" xml:space="preserve">
<style type="text/css">
	.st0{fill:#FFFFFF;}
</style>
<g>
	<path class="st0" d="M435.5,504h-59.3c-0.6-11.6-6.4-19.5-21.8-19.5c-12.8,0-22.7,5.2-22.7,15.4c0,6.1,4.6,9.3,14,11.3l30.8,7.8
		c28.2,7.3,48.8,20.1,48.8,48.8c0,45.9-40.7,75.3-99.4,75.3c-38.7,0-80.8-15.7-79.9-70.9h59c0.9,15.1,9.9,22.1,30.2,22.1
		c16.6,0,23.8-6.1,23.8-14c0-4.1-2.9-8.4-13.4-10.8l-32-8.1c-32.3-8.4-49.1-23.3-48.5-50.9c0.9-48,43.6-73.8,94.2-73.8
		C390.5,436.8,439.9,447.9,435.5,504z"/>
	<path class="st0" d="M559.2,492l-25.9,146.8h-58.4L500.8,492H444l9-50.9h173.9l-9,50.9H559.2z"/>
	<path class="st0" d="M635.1,610.6l-15.4,28.2h-63.4L673.5,440h57.3l46.8,198.8h-62.2l-5.5-28.2H635.1z M690.3,509.2L661,563h39.8
		L690.3,509.2z"/>
	<path class="st0" d="M926.9,580.1l49.4,58.7h-70.9l-43.6-52h-7.3l-9.3,52h-58.4l34.9-197.6h88.9c48.2,0,75.6,21.8,75.6,60.2
		C986.2,537.1,963.9,567,926.9,580.1z M863.6,535.1h29.9c18.9,0,32.6-10.8,32.6-25.3c0-11.6-9.6-18.9-24.7-18.9h-29.9L863.6,535.1z"
		/>
	<path class="st0" d="M1177,504h-59.3c-0.6-11.6-6.4-19.5-21.8-19.5c-12.8,0-22.7,5.2-22.7,15.4c0,6.1,4.6,9.3,14,11.3l30.8,7.8
		c28.2,7.3,48.8,20.1,48.8,48.8c0,45.9-40.7,75.3-99.4,75.3c-38.7,0-80.8-15.7-79.9-70.9h59c0.9,15.1,9.9,22.1,30.2,22.1
		c16.6,0,23.8-6.1,23.8-14c0-4.1-2.9-8.4-13.4-10.8l-32-8.1c-32.3-8.4-49.1-23.3-48.5-50.9c0.9-48,43.6-73.8,94.2-73.8
		C1132,436.8,1181.4,447.9,1177,504z"/>
	<path class="st0" d="M1363.5,638.8h-58.7l12.5-70.3h-69.8l-12.5,70.3h-58.4l34.9-197.6h58.4l-13.4,76.2h69.8l13.4-76.2h58.7
		L1363.5,638.8z"/>
	<path class="st0" d="M1392.2,638.8l34.9-197.6h58.4l-34.9,197.6H1392.2z"/>
	<path class="st0" d="M1594.1,441.2c49.4,0,79.9,21.8,79.9,65.4c0,50.6-40.7,86.6-105.8,86.6h-22.7l-8.1,45.6H1479l34.9-197.6
		L1594.1,441.2L1594.1,441.2z M1578.4,543.5c21.2,0,35.5-12.8,35.5-30.5c0-14.2-9.6-22.1-26.2-22.1h-24.1l-9.3,52.6H1578.4z"/>
</g>
</svg>
