<?xml version="1.0" encoding="UTF-8" standalone="no"?>
<svg
   xmlns:dc="http://purl.org/dc/elements/1.1/"
   xmlns:cc="http://creativecommons.org/ns#"
   xmlns:rdf="http://www.w3.org/1999/02/22-rdf-syntax-ns#"
   xmlns:svg="http://www.w3.org/2000/svg"
   xmlns="http://www.w3.org/2000/svg"
   xmlns:sodipodi="http://sodipodi.sourceforge.net/DTD/sodipodi-0.dtd"
   xmlns:inkscape="http://www.inkscape.org/namespaces/inkscape"
   version="1.1"
   id="svg2"
   xml:space="preserve"
   width="604.724"
   height="421.61868"
   viewBox="0 0 604.724 421.61868"
   sodipodi:docname="TalTech_logo_valge (1)_01.pdf"><metadata
     id="metadata8"><rdf:RDF><cc:Work
         rdf:about=""><dc:format>image/svg+xml</dc:format><dc:type
           rdf:resource="http://purl.org/dc/dcmitype/StillImage" /></cc:Work></rdf:RDF></metadata><defs
     id="defs6"><clipPath
       clipPathUnits="userSpaceOnUse"
       id="clipPath42"><path
         d="M 0,316.214 H 453.543 V 0 H 0 Z"
         id="path40" /></clipPath></defs><sodipodi:namedview
     pagecolor="#ffffff"
     bordercolor="#666666"
     borderopacity="1"
     objecttolerance="10"
     gridtolerance="10"
     guidetolerance="10"
     inkscape:pageopacity="0"
     inkscape:pageshadow="2"
     inkscape:window-width="640"
     inkscape:window-height="480"
     id="namedview4" /><g
     id="g10"
     inkscape:groupmode="layer"
     inkscape:label="TalTech_logo_valge (1)_01"
     transform="matrix(1.3333333,0,0,-1.3333333,0,421.61867)"><g
       id="g12"
       transform="translate(92.6108,160.7445)"><path
         d="m 0,0 v 62.047 h -22.484 v 22.241 h 70.22 V 62.047 H 25.384 V 0 Z"
         style="fill:#ffffff;fill-opacity:1;fill-rule:nonzero;stroke:none"
         id="path14" /></g><g
       id="g16"
       transform="translate(190.7563,160.744)"><path
         d="m 0,0 -3.019,9.856 h -30.15 L -36.188,0 h -28.763 l 30.902,84.288 H -2.14 L 28.767,0 Z m -26.383,32.098 h 16.582 l -8.289,27.173 z"
         style="fill:#ffffff;fill-opacity:1;fill-rule:nonzero;stroke:none"
         id="path18" /></g><g
       id="g20"
       transform="translate(224.1177,160.7445)"><path
         d="M 0,0 V 84.288 H 25.385 V 22.236 H 57.152 V 0 Z"
         style="fill:#ffffff;fill-opacity:1;fill-rule:nonzero;stroke:none"
         id="path22" /></g><g
       id="g24"
       transform="translate(92.6108,71.1815)"><path
         d="m 0,0 v 62.039 h -22.484 v 22.245 h 70.22 V 62.039 H 25.384 V 0 Z"
         style="fill:#ffffff;fill-opacity:1;fill-rule:nonzero;stroke:none"
         id="path26" /></g><g
       id="g28"
       transform="translate(146.1929,71.1825)"><path
         d="M 0,0 V 84.283 H 63.567 V 62.039 H 25.376 V 53.707 H 62.688 V 31.462 H 25.376 V 22.241 H 63.567 V 0 Z"
         style="fill:#ffffff;fill-opacity:1;fill-rule:nonzero;stroke:none"
         id="path30" /></g><g
       id="g32"
       transform="translate(358.0425,71.1815)"><path
         d="M 0,0 V 32.217 H -30.027 V 0 h -25.38 v 84.284 h 25.38 V 54.463 H 0 V 84.284 H 25.375 V 0 Z"
         style="fill:#ffffff;fill-opacity:1;fill-rule:nonzero;stroke:none"
         id="path34" /></g><g
       id="g36"><g
         id="g38"
         clip-path="url(#clipPath42)"><g
           id="g44"
           transform="translate(214.0405,113.2543)"><path
             d="m 0,0 c 0,-25.899 19.85,-43.592 46.1,-43.592 21.984,0 33.177,13.396 38.072,24.645 L 62.307,-8.843 C 60.171,-15.411 53.633,-21.1 46.1,-21.1 c -12.18,0 -20.344,9.349 -20.344,21.1 0,11.753 8.164,21.101 20.344,21.101 7.533,0 14.071,-5.68 16.207,-12.243 L 84.172,19.085 C 79.133,30.705 68.084,43.598 46.1,43.598 19.85,43.598 0,26.042 0,0"
             style="fill:#ffffff;fill-opacity:1;fill-rule:nonzero;stroke:none"
             id="path46" /></g></g></g></g></svg>
